<?xml version="1.0" standalone="no"?>
<!DOCTYPE svg PUBLIC "-//W3C//DTD SVG 20010904//EN"
 "http://www.w3.org/TR/2001/REC-SVG-20010904/DTD/svg10.dtd">
<svg version="1.0" xmlns="http://www.w3.org/2000/svg"
 width="460.000000pt" height="460.000000pt" viewBox="0 0 460.000000 460.000000"
 preserveAspectRatio="xMidYMid meet">

<g transform="translate(0.000000,460.000000) scale(0.100000,-0.100000)"
fill="#000000" stroke="none">
<path d="M1300 2565 c-17 -20 -5 -62 20 -70 44 -14 80 41 48 73 -17 17 -53 15
-68 -3z"/>
<path d="M1910 2565 c-30 -36 18 -87 62 -64 23 12 25 64 2 73 -26 10 -51 7
-64 -9z"/>
<path d="M3240 2565 c-17 -20 -5 -62 20 -70 44 -14 80 41 48 73 -17 17 -53 15
-68 -3z"/>
<path d="M624 2557 c-2 -7 -3 -136 -2 -287 l3 -274 33 -3 32 -3 0 217 c0 129
4 213 9 208 5 -6 21 -41 36 -80 15 -38 36 -89 46 -112 11 -23 35 -81 54 -130
37 -91 46 -103 80 -103 17 0 32 28 89 168 37 92 79 190 91 217 l23 50 1 -215
1 -216 33 1 32 0 0 285 0 285 -37 2 c-20 1 -41 -3 -46 -10 -5 -7 -42 -93 -82
-192 -88 -220 -110 -269 -117 -261 -5 5 -32 70 -148 356 -22 52 -40 97 -42 99
-7 11 -84 9 -89 -2z"/>
<path d="M2734 2561 c-7 -8 -4 -561 4 -562 4 0 19 -2 35 -4 32 -4 30 -12 32
97 2 85 3 88 37 126 l36 40 88 -120 c49 -66 92 -125 95 -130 7 -11 89 -20 89
-9 0 7 -50 75 -190 258 l-40 52 78 82 c107 113 152 163 152 170 0 4 -18 6 -40
6 -37 -1 -46 -7 -117 -86 -43 -47 -85 -92 -93 -101 -8 -9 -32 -35 -52 -57 -20
-23 -38 -36 -40 -30 -3 7 -4 66 -3 132 1 66 0 125 -2 131 -4 10 -59 14 -69 5z"/>
<path d="M1622 2420 c-18 -4 -44 -18 -58 -31 l-24 -22 0 26 c0 24 -4 27 -35
27 l-35 0 2 -212 3 -213 30 0 30 0 5 157 c5 153 6 158 31 184 39 38 97 43 135
11 l29 -25 5 -164 5 -163 30 0 30 0 0 177 c0 174 0 177 -25 203 -14 15 -32 30
-40 35 -26 13 -84 18 -118 10z"/>
<path d="M3544 2416 c-17 -8 -39 -24 -48 -37 l-16 -23 0 32 c0 30 -2 32 -35
32 l-35 0 2 -212 3 -213 30 0 30 0 5 155 c3 85 9 162 13 171 9 18 59 49 81 49
31 0 65 -24 76 -53 5 -16 10 -97 10 -179 l0 -149 28 5 c15 2 30 5 35 5 4 1 7
73 7 160 l0 159 31 26 c38 33 79 33 116 2 l28 -24 3 -167 3 -166 32 3 32 3 0
165 c0 139 -3 171 -18 202 -36 73 -144 86 -212 27 l-33 -29 -19 24 c-11 13
-37 29 -59 35 -48 13 -52 13 -90 -3z"/>
<path d="M1300 2211 l0 -209 25 -6 c14 -4 30 -4 35 -1 6 4 10 94 10 216 l0
209 -35 0 -35 0 0 -209z"/>
<path d="M1908 2168 l-3 -253 -32 -10 c-27 -7 -33 -14 -33 -37 0 -26 3 -28 38
-28 40 0 67 20 91 67 7 14 11 105 11 267 l0 246 -35 0 -35 0 -2 -252z"/>
<path d="M2080 2278 c0 -159 10 -210 48 -250 47 -50 137 -49 191 1 l31 29 0
-29 c0 -22 6 -30 24 -35 14 -3 30 -3 35 1 7 4 11 79 11 216 l0 209 -35 0 -35
0 0 -142 c0 -124 -3 -147 -20 -175 -37 -61 -128 -63 -163 -4 -14 24 -17 56
-17 175 l0 146 -35 0 -35 0 0 -142z"/>
<path d="M3242 2208 l3 -213 30 0 30 0 3 213 2 212 -35 0 -35 0 2 -212z"/>
</g>
</svg>
