<?xml version="1.0" encoding="UTF-8"?>
<svg version="1.1" xmlns="http://www.w3.org/2000/svg" width="460" height="460">
<path d="M0 0 C151.8 0 303.6 0 460 0 C460 151.8 460 303.6 460 460 C308.2 460 156.4 460 0 460 C0 308.2 0 156.4 0 0 Z " fill="#FEFEFE" transform="translate(0,0)"/>
<path d="M0 0 C2.97 0 5.94 0 9 0 C9 19.14 9 38.28 9 58 C6.69 58 4.38 58 2 58 C1.67 44.47 1.34 30.94 1 17 C-3.84800413 28.6668291 -3.84800413 28.6668291 -8.69287109 40.33496094 C-9.30294658 41.80147944 -9.91312823 43.26795378 -10.5234375 44.734375 C-10.83708252 45.49121582 -11.15072754 46.24805664 -11.47387695 47.02783203 C-11.93032593 48.12345459 -11.93032593 48.12345459 -12.39599609 49.24121094 C-12.78904434 50.18719147 -12.78904434 50.18719147 -13.19003296 51.15228271 C-14.0605455 53.13811792 -15.01542321 55.06851567 -16 57 C-18.31 57 -20.62 57 -23 57 C-23.24645264 56.39639648 -23.49290527 55.79279297 -23.74682617 55.17089844 C-31.7614461 35.53879036 -31.7614461 35.53879036 -40 16 C-40.33 29.53 -40.66 43.06 -41 57 C-43.31 57 -45.62 57 -48 57 C-48 38.52 -48 20.04 -48 1 C-44.7 1 -41.4 1 -38 1 C-37.55269531 2.17175781 -37.10539062 3.34351563 -36.64453125 4.55078125 C-32.78404627 14.68932821 -32.78404627 14.68932821 -28.4375 24.625 C-25.17680076 31.57028938 -22.62946577 38.79833601 -20 46 C-17.39789575 42.85781854 -15.96682826 39.77753554 -14.51171875 35.9765625 C-14.05514893 34.79610352 -13.5985791 33.61564453 -13.12817383 32.39941406 C-12.89240631 31.78167114 -12.65663879 31.16392822 -12.41372681 30.52746582 C-11.20253441 27.35455604 -9.97172275 24.18927442 -8.7421875 21.0234375 C-8.27135742 19.81010742 -7.80052734 18.59677734 -7.31542969 17.34667969 C-5.01812906 11.50195122 -2.55542636 5.73623131 0 0 Z " fill="#0E0E0E" transform="translate(110,203)"/>
<path d="M0 0 C2.63056311 1.45184084 4.67105168 3.06746841 7 5 C7.94875 4.195625 8.8975 3.39125 9.875 2.5625 C13.98170285 -0.91926981 16.50123236 -1.36658451 22 -1 C26.60362558 0.85915648 29.82959636 2.65005944 32.0637207 7.13574219 C33.22655563 10.6930771 33.2422226 13.71125377 33.23046875 17.453125 C33.23001053 18.15395203 33.22955231 18.85477905 33.2290802 19.57684326 C33.22607256 21.04929307 33.2182311 22.52174013 33.20581055 23.99414062 C33.18744624 26.25662382 33.1853018 28.51869973 33.18554688 30.78125 C33.14758107 41.85241893 33.14758107 41.85241893 32 43 C30.00041636 43.04080783 27.99954746 43.04254356 26 43 C25.99589111 42.05680908 25.99178223 41.11361816 25.98754883 40.1418457 C25.96051141 36.62806324 25.91137159 33.11601318 25.84741211 29.6027832 C25.82427549 28.08498832 25.80984652 26.56703387 25.80444336 25.04907227 C25.79512078 22.8611357 25.75406849 20.67569313 25.70703125 18.48828125 C25.6913208 17.17384033 25.67561035 15.85939941 25.65942383 14.50512695 C24.84470793 10.17455449 23.43080886 8.68298316 20 6 C16.24780227 5.29646293 14.63481515 5.62217153 11.35668945 7.57324219 C8.16018843 10.86478058 8.34697925 12.8537432 8.29296875 17.390625 C8.27784744 18.09523865 8.26272614 18.79985229 8.24714661 19.52581787 C8.20429485 21.76753805 8.19543532 24.00791122 8.1875 26.25 C8.16435331 27.77347325 8.13898759 29.2969145 8.11132812 30.8203125 C8.04850475 34.54684896 8.01614681 38.27293589 8 42 C5.69 42 3.38 42 1 42 C0.97494385 41.04633545 0.9498877 40.0926709 0.92407227 39.11010742 C0.82987929 35.57090893 0.72968769 32.03190125 0.62768555 28.49291992 C0.58438167 26.96138982 0.54270333 25.42981285 0.50268555 23.89819336 C0.44487268 21.69630818 0.38121031 19.49465789 0.31640625 17.29296875 C0.29969376 16.60849167 0.28298126 15.92401459 0.26576233 15.21879578 C0.1726445 12.22879896 -0.04687437 9.85937689 -1 7 C-2.58129029 6.77668801 -4.16521089 6.57195356 -5.75 6.375 C-6.63171875 6.25898438 -7.5134375 6.14296875 -8.421875 6.0234375 C-11.30241275 5.99725079 -12.68205251 6.2980836 -15 8 C-16.30552381 11.61821239 -16.20711915 15.36243892 -16.31640625 19.171875 C-16.33718735 19.8542926 -16.35796844 20.53671021 -16.37937927 21.23980713 C-16.44452052 23.40977356 -16.50359404 25.57985624 -16.5625 27.75 C-16.60571897 29.22527221 -16.64933432 30.70053287 -16.69335938 32.17578125 C-16.80016518 35.78373166 -16.90153153 39.39181133 -17 43 C-19.31 43 -21.62 43 -24 43 C-24 28.81 -24 14.62 -24 0 C-21.69 0 -19.38 0 -17 0 C-16.67 1.32 -16.34 2.64 -16 4 C-15.401875 3.360625 -14.80375 2.72125 -14.1875 2.0625 C-9.94455366 -1.93799226 -5.33938819 -1.33264069 0 0 Z " fill="#111111" transform="translate(365,218)"/>
<path d="M0 0 C2.64 0 5.28 0 8 0 C8.33 8.91 8.66 17.82 9 27 C11.97 23.535 11.97 23.535 15 20 C16.66666667 18.33333333 18.33333333 16.66666667 20 15 C21.00880944 13.84094235 22.00835863 12.67377958 23 11.5 C25.52771231 8.51093146 28.19259154 5.73153256 31 3 C31.6496875 2.1028125 31.6496875 2.1028125 32.3125 1.1875 C35.24525858 -0.87629308 38.50817233 -0.17172923 42 0 C40.39001889 3.89541407 37.73074847 6.6708711 34.875 9.6875 C33.88336212 10.74799481 32.89248349 11.80920006 31.90234375 12.87109375 C31.41233887 13.39558105 30.92233398 13.92006836 30.41748047 14.46044922 C27.72057236 17.38960914 25.14199759 20.42393629 22.55859375 23.453125 C21 25 21 25 19 25 C22.90000958 30.45586447 26.83285062 35.85614098 31.0625 41.0625 C42 54.5990099 42 54.5990099 42 58 C38.85163653 58.5022142 37.02856182 58.7639317 34 58 C31.03159559 55.38244184 28.98553755 52.22491579 26.8125 48.9375 C26.22275391 48.08994141 25.63300781 47.24238281 25.02539062 46.36914062 C23.87128584 44.70666487 22.72784801 43.03672367 21.59619141 41.35888672 C19.45587971 38.19588709 17.23241118 35.098469 15 32 C14.195625 32.804375 13.39125 33.60875 12.5625 34.4375 C11.375 35.625 10.1875 36.8125 9 38 C8.85578846 39.40197402 8.77313876 40.81042831 8.71875 42.21875 C8.68136719 43.06824219 8.64398438 43.91773438 8.60546875 44.79296875 C8.57066406 45.68628906 8.53585937 46.57960937 8.5 47.5 C8.43140557 49.26059038 8.35871048 51.02102741 8.28125 52.78125 C8.23581055 53.9578418 8.23581055 53.9578418 8.18945312 55.15820312 C8 57 8 57 7 58 C4.69 58 2.38 58 0 58 C0 38.86 0 19.72 0 0 Z " fill="#171717" transform="translate(273,203)"/>
<path d="M0 0 C2.31 0 4.62 0 7 0 C7.01981934 0.88260498 7.03963867 1.76520996 7.06005859 2.67456055 C7.13837866 5.96421957 7.22507855 9.25343964 7.31738281 12.54272461 C7.35555149 13.9635373 7.39042513 15.38444263 7.421875 16.80541992 C7.46779065 18.85368855 7.52573805 20.90132608 7.5859375 22.94921875 C7.6173584 24.17987061 7.6487793 25.41052246 7.68115234 26.6784668 C7.98595035 29.85364055 8.64442201 32.13426057 10 35 C11.58294782 35.05437607 13.16644256 35.09296271 14.75 35.125 C16.07257813 35.15980469 16.07257813 35.15980469 17.421875 35.1953125 C20.2345457 34.98223139 21.71836763 34.6566635 24 33 C25.95788664 29.09258624 26.29521351 25.72470672 26.4140625 21.38671875 C26.45273438 20.13955078 26.49140625 18.89238281 26.53125 17.60742188 C26.5621875 16.31384766 26.593125 15.02027344 26.625 13.6875 C26.66367188 12.37458984 26.70234375 11.06167969 26.7421875 9.70898438 C26.83633117 6.47279563 26.92196352 3.23661065 27 0 C29.31 0 31.62 0 34 0 C34 14.19 34 28.38 34 43 C31.69 43 29.38 43 27 43 C26.505 40.525 26.505 40.525 26 38 C25.05125 38.825 24.1025 39.65 23.125 40.5 C19.24074089 43.2575876 16.07852684 43.74539209 11.3671875 43.48046875 C7.28261216 42.65142128 5.754798 41.15793918 3 38 C0.41457989 32.93411438 -0.36486565 29.31087406 -0.29296875 23.53515625 C-0.28872391 22.85698349 -0.28447906 22.17881073 -0.28010559 21.48008728 C-0.26347941 19.34046598 -0.22586174 17.20183053 -0.1875 15.0625 C-0.17243222 13.60092518 -0.1587475 12.13933542 -0.14648438 10.67773438 C-0.11362977 7.11817603 -0.06196241 3.55918444 0 0 Z " fill="#0C0C0C" transform="translate(208,218)"/>
<path d="M0 0 C6.10512712 3.79874576 6.10512712 3.79874576 7.41186523 7.40332031 C7.97819436 10.72053883 7.93484138 14.00576108 7.91015625 17.359375 C7.9087413 18.08618469 7.90732635 18.81299438 7.90586853 19.56182861 C7.90028792 21.87459494 7.88773904 24.18726312 7.875 26.5 C7.86998249 28.07161318 7.86542002 29.64322789 7.86132812 31.21484375 C7.85032485 35.05993343 7.83307361 38.9049501 7.8125 42.75 C5.5025 42.75 3.1925 42.75 0.8125 42.75 C0.80839111 41.80680908 0.80428223 40.86361816 0.80004883 39.8918457 C0.77301141 36.37806324 0.72387159 32.86601318 0.65991211 29.3527832 C0.63677549 27.83498832 0.62234652 26.31703387 0.61694336 24.79907227 C0.60762078 22.6111357 0.56656849 20.42569313 0.51953125 18.23828125 C0.5038208 16.92384033 0.48811035 15.60939941 0.47192383 14.25512695 C-0.34029608 9.93782179 -1.78717004 8.44325797 -5.1875 5.75 C-7.48604381 5.17779745 -7.48604381 5.17779745 -9.75 5.625 C-10.49378906 5.70492187 -11.23757812 5.78484375 -12.00390625 5.8671875 C-15.18663898 7.15394528 -16.31321976 8.89249868 -18.1875 11.75 C-18.82542809 15.22201124 -18.82542809 15.22201124 -18.796875 19.01953125 C-18.81341125 19.70053391 -18.82994751 20.38153656 -18.84698486 21.08317566 C-18.89529303 23.24304371 -18.9167951 25.40220875 -18.9375 27.5625 C-18.96567444 29.03323817 -18.99560394 30.50394383 -19.02734375 31.97460938 C-19.10104396 35.56625414 -19.15072485 39.15776571 -19.1875 42.75 C-21.4975 42.75 -23.8075 42.75 -26.1875 42.75 C-26.1875 28.56 -26.1875 14.37 -26.1875 -0.25 C-23.8775 -0.25 -21.5675 -0.25 -19.1875 -0.25 C-18.8575 1.07 -18.5275 2.39 -18.1875 3.75 C-17.424375 3.110625 -16.66125 2.47125 -15.875 1.8125 C-10.88342162 -2.0182462 -5.82034906 -2.28248983 0 0 Z " fill="#0B0B0B" transform="translate(173.1875,218.25)"/>
<path d="M0 0 C2.31 0 4.62 0 7 0 C7.10157378 7.01077881 7.17153861 14.02136725 7.21972656 21.03271484 C7.23981893 23.41690157 7.26709781 25.80103915 7.30175781 28.18505859 C7.35037859 31.61568338 7.37299312 35.04565555 7.390625 38.4765625 C7.41127014 39.53928375 7.43191528 40.602005 7.45318604 41.69692993 C7.45503351 47.81547097 7.07359425 51.33648264 3 56 C1 58 1 58 -0.9453125 58.1953125 C-2.96354167 58.13020833 -4.98177083 58.06510417 -7 58 C-7 56.02 -7 54.04 -7 52 C-5.02 51.34 -3.04 50.68 -1 50 C-0.67 33.5 -0.34 17 0 0 Z " fill="#0E0E0E" transform="translate(191,218)"/>
<path d="M0 0 C2.31 0 4.62 0 7 0 C7 14.19 7 28.38 7 43 C4.69 43 2.38 43 0 43 C0 28.81 0 14.62 0 0 Z " fill="#191919" transform="translate(324,218)"/>
<path d="M0 0 C2.31 0 4.62 0 7 0 C7 14.19 7 28.38 7 43 C4.69 43 2.38 43 0 43 C0 28.81 0 14.62 0 0 Z " fill="#0B0B0B" transform="translate(130,218)"/>
<path d="M0 0 C1.98 0 3.96 0 6 0 C6.144375 1.051875 6.28875 2.10375 6.4375 3.1875 C6.90861615 6.76217046 6.90861615 6.76217046 7.54272461 9.28393555 C8.11376194 12.67570829 8.00620877 15.83236308 7.87890625 19.26953125 C7.85529526 19.95053391 7.83168427 20.63153656 7.80735779 21.33317566 C7.73121614 23.49318912 7.64698181 25.65279828 7.5625 27.8125 C7.50922961 29.28318381 7.45648961 30.75388693 7.40429688 32.22460938 C7.27566911 35.81665024 7.13978528 39.40837405 7 43 C4.69 43 2.38 43 0 43 C0 28.81 0 14.62 0 0 Z " fill="#080808" transform="translate(341,218)"/>
<path d="M0 0 C2.5 0.25 2.5 0.25 4.5 2.25 C4.8125 4.75 4.8125 4.75 4.5 7.25 C1.5 9.25 1.5 9.25 -1.1875 8.875 C-1.950625 8.66875 -2.71375 8.4625 -3.5 8.25 C-4.125 5.375 -4.125 5.375 -4.5 2.25 C-2.5 0.25 -2.5 0.25 0 0 Z " fill="#151515" transform="translate(133.5,201.75)"/>
<path d="M0 0 C2.5 0.25 2.5 0.25 4.5 2.25 C4.6875 4.8125 4.6875 4.8125 4.5 7.25 C3.5 8.25 3.5 8.25 -0.0625 8.3125 C-1.196875 8.291875 -2.33125 8.27125 -3.5 8.25 C-4.125 5.375 -4.125 5.375 -4.5 2.25 C-2.5 0.25 -2.5 0.25 0 0 Z " fill="#0D0D0D" transform="translate(327.5,201.75)"/>
<path d="M0 0 C2.33944736 0.28730055 4.6739143 0.61936779 7 1 C7.04254356 2.99954746 7.04080783 5.00041636 7 7 C6 8 6 8 3.0625 8.1875 C0 8 0 8 -2 6 C-1.44444444 1.44444444 -1.44444444 1.44444444 0 0 Z " fill="#0F0F0F" transform="translate(192,202)"/>
<path d="M0 0 C0.33 0 0.66 0 1 0 C1 14.52 1 29.04 1 44 C0.67 44 0.34 44 0 44 C-0.33 32.12 -0.66 20.24 -1 8 C-1.33 8.66 -1.66 9.32 -2 10 C-2.66 9.67 -3.32 9.34 -4 9 C-2.68 6.03 -1.36 3.06 0 0 Z " fill="#E0E0E0" transform="translate(111,218)"/>
<path d="M0 0 C-0.99 0.33 -1.98 0.66 -3 1 C-3 1.66 -3 2.32 -3 3 C-6.11505367 5.84804907 -9.01328937 7.63312778 -13 9 C-13 8.01 -13 7.02 -13 6 C-13.66 5.67 -14.32 5.34 -15 5 C-9.79981505 0.64308829 -6.77267164 -0.12778626 0 0 Z " fill="#232323" transform="translate(170,217)"/>
<path d="M0 0 C0 0.33 0 0.66 0 1 C-2.31 1.66 -4.62 2.32 -7 3 C-7.061875 3.598125 -7.12375 4.19625 -7.1875 4.8125 C-8.3236757 7.87143458 -10.17330142 8.55041099 -13 10 C-12.67 8.35 -12.34 6.7 -12 5 C-11.34 5 -10.68 5 -10 5 C-10.33 4.01 -10.66 3.02 -11 2 C-7.36576791 -0.32590854 -4.22911669 -0.16265833 0 0 Z " fill="#2C2C2C" transform="translate(387,217)"/>
<path d="M0 0 C-1.485 2.475 -1.485 2.475 -3 5 C-3.66 4.67 -4.32 4.34 -5 4 C-5.625 1.9375 -5.625 1.9375 -6 0 C-2.25 -1.125 -2.25 -1.125 0 0 Z " fill="#DBDBDB" transform="translate(94,245)"/>
</svg>
